  <svg xmlns="http://www.w3.org/2000/svg" width="20" height="20" viewBox="0 0 20 20" fill="none"
              id="dataProfile">
              <path
                d="M13.7504 5.26923C13.7504 6.13628 13.408 6.96782 12.7984 7.58092C12.1888 8.19402 11.3621 8.53846 10.5 8.53846C9.63793 8.53846 8.81117 8.19402 8.2016 7.58092C7.59202 6.96782 7.24957 6.13628 7.24957 5.26923C7.24957 4.40217 7.59202 3.57063 8.2016 2.95753C8.81117 2.34444 9.63793 2 10.5 2C11.3621 2 12.1888 2.34444 12.7984 2.95753C13.408 3.57063 13.7504 4.40217 13.7504 5.26923ZM4 17.5772C4.02785 15.8618 4.72492 14.2262 5.94088 13.023C7.15684 11.8198 8.79425 11.1455 10.5 11.1455C12.2058 11.1455 13.8432 11.8198 15.0591 13.023C16.2751 14.2262 16.9721 15.8618 17 17.5772C14.9608 18.5177 12.7434 19.003 10.5 19C8.18049 19 5.97886 18.4909 4 17.5772Z"
                stroke="#35363D" stroke-width="1.4" stroke-linecap="round" stroke-linejoin="round" />
            </svg>